<?xml version="1.0" encoding="UTF-8"?>
<svg id="Camada_2" data-name="Camada 2" xmlns="http://www.w3.org/2000/svg" viewBox="0 0 25.98 26.64">
  <defs>
    <style>
      .cls-1 {
        fill: #fff;
      }

      .cls-2 {
        fill: #7c0000;
      }
    </style>
  </defs>
  <g id="Camada_1-2" data-name="Camada 1">
    <g>
      <circle class="cls-2" cx="13.08" cy="13.36" r="12.84"/>
      <path class="cls-1" d="m25.97,13.36c.15,9.27-9.26,16.1-17.91,12.12C-4.9,19.45-1.5.31,13.08,0c7.17-.18,13.09,6.39,12.89,13.36h0Zm-.1,0c-.06-10.93-13.88-16.37-21.54-8.75-4.85,4.56-5.18,13.06-.21,17.71,7.63,7.58,21.8,1.9,21.75-8.96h0Z"/>
    </g>
    <path class="cls-1" d="m21.17,18.63c.79.78.79,2.05,0,2.83-.39.39-.9.59-1.41.59s-1.02-.2-1.41-.59l-5.27-5.27-5.27,5.27c-.39.39-.9.59-1.42.59s-1.02-.2-1.41-.59c-.78-.78-.78-2.05,0-2.83l5.27-5.26-5.27-5.27c-.78-.79-.78-2.05,0-2.83.78-.78,2.05-.78,2.83,0l5.27,5.27,5.27-5.27c.78-.78,2.04-.78,2.82,0,.79.78.79,2.04,0,2.83l-5.26,5.27,5.26,5.26Z"/>
  </g>
</svg>