<?xml version="1.0" encoding="UTF-8"?>
<svg id="Camada_2" data-name="Camada 2" xmlns="http://www.w3.org/2000/svg" viewBox="0 0 37.73 26.09">
  <defs>
    <style>
      .cls-1 {
        fill: #005a00;
      }

      .cls-2 {
        fill: #fff;
      }
    </style>
  </defs>
  <g id="Camada_1-2" data-name="Camada 1">
    <g>
      <path class="cls-1" d="m37.68.37c-3.61,3.8-8.91,9.12-12.66,12.89-3.11,3.16-9.45,9.44-12.64,12.51-.19.19-.5.19-.69.01-3.25-3.15-7.86-7.56-10.99-10.74l-.21-.2.29-.3.31.09c3.57,1.18,6.91,2.88,10.07,4.87C18.24,11.25,26.83,4.05,37.08.17l.3-.1.3.3Z"/>
      <path class="cls-2" d="m37.73.37c-5.78,6.3-11.88,12.92-18.18,18.83-1.58,1.49-5.63,5.31-7.14,6.77-.29.23-.77.09-.95-.16-3.65-3.65-7.45-7.2-11.22-10.71,0,0-.25-.23-.25-.23.2-.21.47-.52.67-.72,3.82,1.08,7.39,2.87,10.76,4.94,0,0-.64.1-.64.1C17.87,10.78,26.81,3.46,37.36.01c0,0,.04-.01.04-.01l.03.03.3.35h0Zm-.1,0l-.3-.25s.07.02.07.02c-10.17,4.18-18.69,11.48-25.86,19.69,0,0-.29.33-.29.33-3.3-2.14-6.84-4.01-10.57-5.26,0,0,.36-.1.36-.1l-.3.29v-.5c3.43,3.5,6.85,7.01,10.38,10.41.46.38.75.92,1.09.68.73-.73,1.53-1.53,2.27-2.31C22.02,15.48,29.7,7.93,37.63.38h0Z"/>
    </g>
  </g>
</svg>